<mxfile host="Electron" modified="2023-05-18T23:34:22.668Z" agent="Mozilla/5.0 (Macintosh; Intel Mac OS X 10_15_7) AppleWebKit/537.36 (KHTML, like Gecko) draw.io/21.2.8 Chrome/112.0.5615.165 Electron/24.2.0 Safari/537.36" etag="6cfaWBbhssM6hvzEKEER" version="21.2.8" type="device">
  <diagram id="VveE3P3fXgZeAthQIM0d" name="Page-1">
    <mxGraphModel dx="1179" dy="809" grid="1" gridSize="10" guides="1" tooltips="1" connect="1" arrows="1" fold="1" page="1" pageScale="1" pageWidth="850" pageHeight="1100" math="0" shadow="0">
      <root>
        <mxCell id="0" />
        <mxCell id="1" parent="0" />
        <mxCell id="dEIIJowMPavv_VetpSU6-32" style="edgeStyle=orthogonalEdgeStyle;rounded=0;jumpStyle=arc;jumpSize=6;orthogonalLoop=1;jettySize=auto;html=1;exitX=1;exitY=0.5;exitDx=0;exitDy=0;fontSize=14;startArrow=classic;startFill=1;entryX=0.5;entryY=0;entryDx=0;entryDy=0;strokeWidth=3;endArrow=none;endFill=0;" parent="1" source="dEIIJowMPavv_VetpSU6-8" target="dEIIJowMPavv_VetpSU6-10" edge="1">
          <mxGeometry relative="1" as="geometry">
            <mxPoint x="480" y="85" as="targetPoint" />
          </mxGeometry>
        </mxCell>
        <mxCell id="dEIIJowMPavv_VetpSU6-8" value="&lt;font style=&quot;font-size: 14px;&quot;&gt;Cancelled&lt;/font&gt;" style="rounded=1;whiteSpace=wrap;html=1;fillColor=#66B2FF;strokeWidth=5;" parent="1" vertex="1">
          <mxGeometry x="230" y="60" width="120" height="30" as="geometry" />
        </mxCell>
        <mxCell id="dEIIJowMPavv_VetpSU6-24" style="edgeStyle=orthogonalEdgeStyle;rounded=0;orthogonalLoop=1;jettySize=auto;html=1;exitX=0.5;exitY=1;exitDx=0;exitDy=0;entryX=0.5;entryY=0;entryDx=0;entryDy=0;fontSize=14;strokeWidth=3;" parent="1" source="dEIIJowMPavv_VetpSU6-9" target="dEIIJowMPavv_VetpSU6-19" edge="1">
          <mxGeometry relative="1" as="geometry" />
        </mxCell>
        <mxCell id="dEIIJowMPavv_VetpSU6-39" style="edgeStyle=orthogonalEdgeStyle;rounded=0;jumpStyle=arc;jumpSize=6;orthogonalLoop=1;jettySize=auto;html=1;exitX=0.75;exitY=0;exitDx=0;exitDy=0;fontSize=14;startArrow=none;startFill=0;entryX=0;entryY=0.5;entryDx=0;entryDy=0;strokeWidth=3;" parent="1" source="dEIIJowMPavv_VetpSU6-9" target="dEIIJowMPavv_VetpSU6-8" edge="1">
          <mxGeometry relative="1" as="geometry">
            <mxPoint x="120" y="80" as="targetPoint" />
          </mxGeometry>
        </mxCell>
        <mxCell id="dEIIJowMPavv_VetpSU6-40" style="edgeStyle=orthogonalEdgeStyle;rounded=0;jumpStyle=arc;jumpSize=6;orthogonalLoop=1;jettySize=auto;html=1;exitX=1;exitY=0.5;exitDx=0;exitDy=0;entryX=0;entryY=0.5;entryDx=0;entryDy=0;fontSize=14;startArrow=none;startFill=0;strokeWidth=3;" parent="1" source="dEIIJowMPavv_VetpSU6-9" target="dEIIJowMPavv_VetpSU6-10" edge="1">
          <mxGeometry relative="1" as="geometry" />
        </mxCell>
        <mxCell id="dEIIJowMPavv_VetpSU6-43" style="edgeStyle=orthogonalEdgeStyle;rounded=0;jumpStyle=arc;jumpSize=6;orthogonalLoop=1;jettySize=auto;html=1;exitX=0.75;exitY=1;exitDx=0;exitDy=0;fontSize=14;startArrow=none;startFill=0;strokeWidth=3;entryX=0;entryY=0.25;entryDx=0;entryDy=0;" parent="1" source="dEIIJowMPavv_VetpSU6-9" target="dEIIJowMPavv_VetpSU6-11" edge="1">
          <mxGeometry relative="1" as="geometry">
            <mxPoint x="130" y="170" as="targetPoint" />
          </mxGeometry>
        </mxCell>
        <mxCell id="dEIIJowMPavv_VetpSU6-9" value="&lt;span style=&quot;font-size: 14px;&quot;&gt;Ready&lt;/span&gt;" style="rounded=1;whiteSpace=wrap;html=1;fillColor=#66B2FF;" parent="1" vertex="1">
          <mxGeometry x="30" y="105" width="120" height="30" as="geometry" />
        </mxCell>
        <mxCell id="dEIIJowMPavv_VetpSU6-36" style="edgeStyle=orthogonalEdgeStyle;rounded=0;jumpStyle=arc;jumpSize=6;orthogonalLoop=1;jettySize=auto;html=1;exitX=0.75;exitY=1;exitDx=0;exitDy=0;fontSize=14;startArrow=none;startFill=0;entryX=1;entryY=0.5;entryDx=0;entryDy=0;strokeWidth=3;" parent="1" source="dEIIJowMPavv_VetpSU6-10" target="dEIIJowMPavv_VetpSU6-19" edge="1">
          <mxGeometry relative="1" as="geometry">
            <mxPoint x="515" y="210" as="targetPoint" />
          </mxGeometry>
        </mxCell>
        <mxCell id="dEIIJowMPavv_VetpSU6-10" value="&lt;span style=&quot;font-size: 14px;&quot;&gt;In Progress&lt;/span&gt;" style="rounded=1;whiteSpace=wrap;html=1;fillColor=#66B2FF;" parent="1" vertex="1">
          <mxGeometry x="425" y="105" width="120" height="30" as="geometry" />
        </mxCell>
        <mxCell id="dEIIJowMPavv_VetpSU6-29" style="edgeStyle=orthogonalEdgeStyle;rounded=0;orthogonalLoop=1;jettySize=auto;html=1;exitX=0.5;exitY=0;exitDx=0;exitDy=0;entryX=0.5;entryY=1;entryDx=0;entryDy=0;fontSize=14;jumpStyle=arc;strokeWidth=3;" parent="1" source="dEIIJowMPavv_VetpSU6-11" target="dEIIJowMPavv_VetpSU6-8" edge="1">
          <mxGeometry relative="1" as="geometry" />
        </mxCell>
        <mxCell id="dEIIJowMPavv_VetpSU6-37" style="edgeStyle=orthogonalEdgeStyle;rounded=0;jumpStyle=arc;jumpSize=6;orthogonalLoop=1;jettySize=auto;html=1;exitX=1;exitY=0.5;exitDx=0;exitDy=0;fontSize=14;startArrow=classic;startFill=1;strokeWidth=3;" parent="1" source="dEIIJowMPavv_VetpSU6-11" target="dEIIJowMPavv_VetpSU6-10" edge="1">
          <mxGeometry relative="1" as="geometry">
            <mxPoint x="470" y="170" as="targetPoint" />
          </mxGeometry>
        </mxCell>
        <mxCell id="dEIIJowMPavv_VetpSU6-42" style="edgeStyle=orthogonalEdgeStyle;rounded=0;jumpStyle=arc;jumpSize=6;orthogonalLoop=1;jettySize=auto;html=1;exitX=0;exitY=0.75;exitDx=0;exitDy=0;fontSize=14;startArrow=none;startFill=0;entryX=0.75;entryY=0;entryDx=0;entryDy=0;strokeWidth=3;" parent="1" source="dEIIJowMPavv_VetpSU6-11" target="dEIIJowMPavv_VetpSU6-19" edge="1">
          <mxGeometry relative="1" as="geometry">
            <mxPoint x="120" y="200" as="targetPoint" />
          </mxGeometry>
        </mxCell>
        <mxCell id="dEIIJowMPavv_VetpSU6-11" value="&lt;span style=&quot;font-size: 14px;&quot;&gt;On-Hold&lt;/span&gt;" style="rounded=1;whiteSpace=wrap;html=1;fillColor=#66B2FF;" parent="1" vertex="1">
          <mxGeometry x="230" y="155" width="120" height="30" as="geometry" />
        </mxCell>
        <mxCell id="dEIIJowMPavv_VetpSU6-25" style="edgeStyle=orthogonalEdgeStyle;rounded=0;orthogonalLoop=1;jettySize=auto;html=1;exitX=1;exitY=0.5;exitDx=0;exitDy=0;entryX=0;entryY=0.5;entryDx=0;entryDy=0;fontSize=14;strokeWidth=3;" parent="1" edge="1">
          <mxGeometry relative="1" as="geometry">
            <mxPoint x="150" y="130" as="sourcePoint" />
          </mxGeometry>
        </mxCell>
        <mxCell id="dEIIJowMPavv_VetpSU6-19" value="&lt;span style=&quot;font-size: 14px;&quot;&gt;Completed or Failed&lt;/span&gt;" style="rounded=1;whiteSpace=wrap;html=1;fillColor=#66B2FF;strokeWidth=5;" parent="1" vertex="1">
          <mxGeometry x="30" y="210" width="120" height="40" as="geometry" />
        </mxCell>
        <mxCell id="dEIIJowMPavv_VetpSU6-48" style="edgeStyle=orthogonalEdgeStyle;rounded=0;jumpStyle=arc;jumpSize=6;orthogonalLoop=1;jettySize=auto;html=1;entryX=0.5;entryY=0;entryDx=0;entryDy=0;fontSize=14;startArrow=none;startFill=0;strokeWidth=3;" parent="1" source="dEIIJowMPavv_VetpSU6-47" target="dEIIJowMPavv_VetpSU6-9" edge="1">
          <mxGeometry relative="1" as="geometry" />
        </mxCell>
        <mxCell id="dEIIJowMPavv_VetpSU6-47" value="" style="ellipse;whiteSpace=wrap;html=1;aspect=fixed;fontSize=14;strokeWidth=5;fillColor=#1A1A1A;strokeColor=#1A1A1A;" parent="1" vertex="1">
          <mxGeometry x="75" y="40" width="30" height="30" as="geometry" />
        </mxCell>
      </root>
    </mxGraphModel>
  </diagram>
</mxfile>
